# xmcd
#
# Track frame offsets: 
#        170
#        14792
#        29210
#        39747
#        50355
#        58622
#        71270
#        84487
#        94372
#        106482
#        119417
#        133717
#        142800
#        156147
#        170397
#        181275
#        194010
#        207895
#        221082
#        232820
#        243667
#        255817
#
# Disc length: 3569 seconds
#
# Revision: 2
# Processed by: cddbd v1.5.2PL0 Copyright (c) Steve Scherf et al.
# Submitted via: ExactAudioCopy v1.3
#
DISCID=400def16
DTITLE=Jim Reeves - The Christmas Collection
DYEAR=1992
DGENRE=Country
TTITLE0=White Christmas
TTITLE1=Silent Night
TTITLE2=O Little Town Of Bethlehem
TTITLE3=The Merry Christmas Polka
TTITLE4=Jingle Bells
TTITLE5=C.H.R.I.S.T.M.A.S.
TTITLE6=My Cathedral
TTITLE7=Snowflake
TTITLE8=He Will
TTITLE9=Oh, Gentle Shepherd
TTITLE10=Blue Christmas
TTITLE11=O Come All Ye Faithful
TTITLE12=Silver Bells
TTITLE13=Mary's Boy Child
TTITLE14=Senor Santa Claus
TTITLE15=An Old Christmas Card
TTITLE16=Whispering Hope
TTITLE17=It Is No Secret (What God Can Do)
TTITLE18=May The Good Lord Bless And Keep You
TTITLE19=Angels Don't Lie
TTITLE20=We Thank Thee
TTITLE21=God Be With You (Till We Meet Again)
EXTD=
EXTT0=
EXTT1=
EXTT2=
EXTT3=
EXTT4=
EXTT5=
EXTT6=
EXTT7=
EXTT8=
EXTT9=
EXTT10=
EXTT11=
EXTT12=
EXTT13=
EXTT14=
EXTT15=
EXTT16=
EXTT17=
EXTT18=
EXTT19=
EXTT20=
EXTT21=
PLAYORDER=
